<svg xmlns="http://www.w3.org/2000/svg" width="32" height="32" viewBox="0 0 32 32"><g transform="translate(-108 -4040)"><g transform="translate(111.999 4047)"><g transform="translate(0.001)"><path d="M20.879,10.283a.27.27,0,0,0-.055.009l-.77.218-7.328,2.062-.089-2.793,2.4-.788,5.821-1.907a.606.606,0,0,1,.53.161,1.808,1.808,0,0,1,.313,1.269c-.038,1.7-.8,1.768-.826,1.77m-.563,3.771c.013.124.027.238.04.325l-10.2,2.548.087-2.773,2.183-.451.322.078,1.207-.393,5.567-1.149,1.067-.22a3.721,3.721,0,0,0-.27,2.035m-10.61,2.87-8.1-2.28a.231.231,0,0,0-.051-.009c-.033,0-.793-.071-.83-1.769A1.8,1.8,0,0,1,1.039,11.6a.563.563,0,0,1,.413-.172.589.589,0,0,1,.1.009h0l8.239,2.7ZM1.429,4.161a1.8,1.8,0,0,1,.313-1.269.566.566,0,0,1,.413-.172.637.637,0,0,1,.106.009l5.5,1.8,2.741.9L10.408,8.22,2.716,6.053,2.31,5.94a.245.245,0,0,0-.051-.007c-.033,0-.792-.074-.83-1.772m.415,3.506,1.067.22,6.875,1.42.6.124,1.8.371.088,2.773-9.287-2.32-.915-.229c.014-.088.027-.2.042-.325a3.751,3.751,0,0,0-.271-2.035m9.1-2.218,2.117-.436,7.161-1.479,1.067-.219a3.711,3.711,0,0,0-.271,2.034c.012.124.027.238.04.326l-1.167.29L10.856,8.223Zm10.538.03c-.095-.706-.107-1.923.546-2.331a.365.365,0,0,0,.031-.027c.534-.172.9-.413.614-.737L14.8,0,2.041,1.781S.581,1.991.71,4.271a2.95,2.95,0,0,0,.8,2.148L.461,6.737c-.289.324.08.563.614.735a.2.2,0,0,0,.031.027c.651.41.639,1.625.546,2.333-2.344.667-1.5.886-1.5.886l.515.124a2.508,2.508,0,0,0-.653,2.132c.129,2.28,1.329,2.437,1.329,2.437l8.347,2.724,12.6-3.064s.841-.22-1.5-.888c-.095-.7-.107-1.921.546-2.331a.218.218,0,0,0,.031-.027c.533-.172.9-.411.614-.735l-.548-.167c.366-.221.914-.8,1-2.3A2.673,2.673,0,0,0,21.9,6.629l1.081-.264s.843-.217-1.5-.886" transform="translate(-0.001)" fill="#f85b11"/></g></g><rect width="32" height="32" transform="translate(108 4040)" fill="none"/></g></svg>