<svg xmlns="http://www.w3.org/2000/svg" width="32" height="32" viewBox="0 0 32 32"><g transform="translate(-692 -4037)"><g transform="translate(695.924 4041.982)"><g transform="translate(0.076 0.018)"><path d="M11.641,16.712a.891.891,0,0,1,.423.1l4.974,2.59-.954-5.492a.839.839,0,0,1,.261-.783l4.03-3.917-5.568-.8a.851.851,0,0,1-.675-.49l-2.492-4.94L9.149,7.971a.851.851,0,0,1-.675.489l-5.569.748,4.03,3.89a.837.837,0,0,1,.261.783L6.244,19.4l4.984-2.59a.893.893,0,0,1,.414-.1m6.594,5.208a.893.893,0,0,1-.423-.1l-6.171-3.214-6.18,3.214a.909.909,0,0,1-.945-.068.872.872,0,0,1-.3-.383.863.863,0,0,1-.056-.484l1.188-6.81-5-4.825a.884.884,0,0,1-.221-.911.877.877,0,0,1,.276-.4.889.889,0,0,1,.449-.2l6.908-1L10.841.511a.878.878,0,0,1,.332-.36.9.9,0,0,1,1.279.36l3.085,6.231,6.9,1a.884.884,0,0,1,.452.2.874.874,0,0,1,.275.407.86.86,0,0,1,.016.489.874.874,0,0,1-.248.424l-4.993,4.816,1.178,6.81a.884.884,0,0,1-.2.73.9.9,0,0,1-.7.312Z" transform="translate(-0.076 -0.018)" fill="#f85b11"/></g></g><rect width="32" height="32" transform="translate(692 4037)" fill="none"/></g></svg>