<svg xmlns="http://www.w3.org/2000/svg" width="56" height="56" viewBox="0 0 56 56"><g transform="translate(-516 -1454)"><path d="M4.455,0H51.545A4.535,4.535,0,0,1,56,4.612V51.388A4.535,4.535,0,0,1,51.545,56H4.455A4.535,4.535,0,0,1,0,51.388V4.612A4.535,4.535,0,0,1,4.455,0Z" transform="translate(516 1454)" fill="#f85b11"/><g transform="translate(530 1473.034)"><path d="M6.291,8.289a.991.991,0,0,0,.055-.109,5.86,5.86,0,0,1-.279-.961A5.933,5.933,0,0,1,7.78,1.773a6.4,6.4,0,0,1,8.335-.435A5.878,5.878,0,0,1,18.3,4.763v.006h0A3.078,3.078,0,0,1,20.83,3.83a3.39,3.39,0,0,1,1.5.526A3.2,3.2,0,0,1,23.412,5.5a2.761,2.761,0,0,1,.082,2.551h0l.009.014A4.827,4.827,0,0,1,26.7,9.505a4.535,4.535,0,0,1-.094,6.459,4.841,4.841,0,0,1-3.38,1.357H4.779A4.841,4.841,0,0,1,1.4,15.964a4.537,4.537,0,0,1,0-6.552,4.844,4.844,0,0,1,3.38-1.357,4.935,4.935,0,0,1,.83.069c.071.012.143.022.215.036a3.026,3.026,0,0,1,.468.129" transform="translate(0 0)" fill="#f9f9f9" fill-rule="evenodd"/></g></g></svg>