<svg xmlns="http://www.w3.org/2000/svg" width="32" height="32" viewBox="0 0 32 32"><g transform="translate(-116 -3842)"><rect width="32" height="32" transform="translate(116 3842)" fill="none"/><g transform="translate(120 3847)"><path d="M3.291,3.766A3.792,3.792,0,0,1,5.908,2.31,4.051,4.051,0,0,1,10,4.542a1.74,1.74,0,0,0,3.126,0,4.056,4.056,0,0,1,4.1-2.232,3.792,3.792,0,0,1,2.616,1.456,4.648,4.648,0,0,1,.933,3.516c-.743,5.37-7.142,10.412-9.208,11.913C9.5,17.7,3.1,12.663,2.358,7.282a4.652,4.652,0,0,1,.933-3.516M.067,7.593C1.092,15,10.524,21.287,10.926,21.551a1.167,1.167,0,0,0,1.28,0c.4-.264,9.834-6.549,10.859-13.958a6.93,6.93,0,0,0-1.4-5.239,6.125,6.125,0,0,0-4.2-2.319,6.457,6.457,0,0,0-5.9,2.643A6.453,6.453,0,0,0,5.668.034a6.124,6.124,0,0,0-4.2,2.319A6.928,6.928,0,0,0,.067,7.593" transform="translate(0 0)" fill="#f85b11"/></g></g></svg>