<svg xmlns="http://www.w3.org/2000/svg" width="56" height="56" viewBox="0 0 56 56"><g transform="translate(-799 -1454)"><rect width="56" height="56" rx="7" transform="translate(799 1454)" fill="#f85b11"/><g transform="translate(814.909 1467.835)"><path d="M17.452,12.188l-5.6,5.531a.934.934,0,0,1-.3.2.955.955,0,0,1-1.02-.2l-2.8-2.766a.919.919,0,0,1,0-1.309.943.943,0,0,1,1.325,0l2.136,2.12,4.934-4.886a.943.943,0,0,1,1.325,0,.914.914,0,0,1,.275.654.917.917,0,0,1-.275.655ZM23.319,5.08A16.45,16.45,0,0,1,17.66,3.842a16.313,16.313,0,0,1-4.871-3.1.919.919,0,0,0-.3-.2.947.947,0,0,0-.716,0,.91.91,0,0,0-.3.2C7.145,5.015.989,5.08.933,5.08a.933.933,0,0,0-.357.07.921.921,0,0,0-.3.2A.917.917,0,0,0,0,6v7.375a15.424,15.424,0,0,0,3.325,9.559,15.746,15.746,0,0,0,8.577,5.5.954.954,0,0,0,.448,0,15.751,15.751,0,0,0,6.812-3.617A15.484,15.484,0,0,0,23.4,18.432a15.359,15.359,0,0,0,.852-5.055V6a.9.9,0,0,0-.071-.353.908.908,0,0,0-.2-.3.921.921,0,0,0-.3-.2.931.931,0,0,0-.357-.07" transform="translate(0 -0.468)" fill="#f9f9f9"/></g></g></svg>