<svg xmlns="http://www.w3.org/2000/svg" width="32" height="32" viewBox="0 0 32 32"><g transform="translate(-692 -3843)"><g transform="translate(695.948 3849)"><g transform="translate(4.871 4.82)"><path d="M9.408,15.451a.455.455,0,0,0,.481.482H22.42a.482.482,0,0,0,0-.963H9.889a.455.455,0,0,0-.481.482" transform="translate(-9.407 -12.078)" fill="#f85b11"/><path d="M9.889,21.545h5.3a.482.482,0,1,0,0-.963h-5.3a.482.482,0,1,0,0,.963" transform="translate(-9.407 -14.799)" fill="#f85b11"/><path d="M22.333,10.319a.482.482,0,0,0,0-.963h-9.64a.482.482,0,1,0,0,.963Z" transform="translate(-10.767 -9.356)" fill="#f85b11"/></g><g transform="translate(0.052)"><g transform="translate(0)"><path d="M22.22,0H1.015A.967.967,0,0,0,.052.963V15.422a.967.967,0,0,0,.963.963h9.977a2.241,2.241,0,0,1,0-1.926H2.943a.968.968,0,0,1-.963-.965V2.891a.964.964,0,0,1,.963-.963H20.292a.966.966,0,0,1,.965.963v10.6a.969.969,0,0,1-.965.965h-.336a2.252,2.252,0,0,1,0,1.926H22.22a.966.966,0,0,0,.963-.963V.963A.966.966,0,0,0,22.22,0" transform="translate(-0.052)" fill="#f85b11"/></g></g><g transform="translate(11.81 11.662)"><path d="M29.572,37.715a2.44,2.44,0,0,1-1.4.482,2.593,2.593,0,0,1-1.446-.482,1.485,1.485,0,0,1-.385-.385h-.1v3.42a.506.506,0,0,0,.241.434.437.437,0,0,0,.482,0l1.156-.77,1.206.77a.822.822,0,0,0,.241.1.427.427,0,0,0,.241-.049.5.5,0,0,0,.241-.432V37.377h-.1a2.793,2.793,0,0,1-.385.337" transform="translate(-24.511 -29.762)" fill="#f85b11"/><path d="M29.577,25.146a.294.294,0,0,1-.144-.29,1.381,1.381,0,0,0-1.35-1.35.291.291,0,0,1-.288-.142,3.061,3.061,0,0,0-.387-.436,1.375,1.375,0,0,0-1.686,0,1.583,1.583,0,0,0-.387.436.342.342,0,0,1-.288.142,1.381,1.381,0,0,0-1.35,1.35.294.294,0,0,1-.144.29,1.5,1.5,0,0,0-.387.385,1.378,1.378,0,0,0,0,1.688c.146.144.291.29.387.385a.293.293,0,0,1,.144.288,1.38,1.38,0,0,0,1.35,1.35.289.289,0,0,1,.288.146,3.237,3.237,0,0,0,.387.434,1.309,1.309,0,0,0,1.638,0,1.579,1.579,0,0,0,.385-.434.293.293,0,0,1,.291-.146,1.377,1.377,0,0,0,1.348-1.35.294.294,0,0,1,.146-.288,3.024,3.024,0,0,0,.432-.385,1.372,1.372,0,0,0,0-1.688,1.454,1.454,0,0,0-.385-.385" transform="translate(-22.878 -22.639)" fill="#f85b11"/></g></g><rect width="32" height="32" transform="translate(692 3843)" fill="none"/></g></svg>