<svg xmlns="http://www.w3.org/2000/svg" width="56" height="56" viewBox="0 0 56 56"><g transform="translate(-642 -1238)"><path d="M4.455,0H51.545A4.535,4.535,0,0,1,56,4.612V51.388A4.535,4.535,0,0,1,51.545,56H4.455A4.535,4.535,0,0,1,0,51.388V4.612A4.535,4.535,0,0,1,4.455,0Z" transform="translate(642 1238)" fill="#f85b11"/><g transform="translate(659.162 1251.506)"><path d="M15.372,21.75H6.5a.586.586,0,0,1-.588-.587V11.392H.7a.588.588,0,0,1-.542-.363.575.575,0,0,1-.033-.339.569.569,0,0,1,.161-.3L10.523.164a.61.61,0,0,1,.831,0L21.505,10.3a.587.587,0,0,1-.306,1.088H15.958v9.771a.585.585,0,0,1-.586.588" transform="translate(-0.112 0)" fill="#f9f9f9"/><rect width="10.045" height="1.174" transform="translate(5.802 23.702)" fill="#f9f9f9"/><rect width="10.046" height="1.174" transform="translate(5.801 26.826)" fill="#f9f9f9"/></g></g></svg>