<svg xmlns="http://www.w3.org/2000/svg" width="56" height="56" viewBox="0 0 56 56"><g transform="translate(-927.304 -1238.4)"><rect width="56" height="56" rx="7" transform="translate(927.304 1238.4)" fill="#f85b11"/><g transform="translate(941.867 1253.315)"><g transform="translate(0 0)"><path d="M5.06,25.85H25.849V5.061H5.06Zm18.716-7.7a1.363,1.363,0,0,1-1.363,1.363v3.921H8.5V19.515a1.363,1.363,0,0,1-1.363-1.363V12.759A1.363,1.363,0,0,1,8.5,11.4V7.474H22.413V11.4a1.363,1.363,0,0,1,1.363,1.363Z" transform="translate(-2.081 -2.081)" fill="#f9f9f9"/><path d="M0,0H.861V2.118H0Z" transform="translate(4.166)" fill="#f9f9f9"/><path d="M0,0H.861V2.118H0Z" transform="translate(6.148)" fill="#f9f9f9"/><path d="M0,0H.861V2.118H0Z" transform="translate(8.09)" fill="#f9f9f9"/><path d="M0,0H.861V2.118H0Z" transform="translate(10.031)" fill="#f9f9f9"/><path d="M0,0H.861V2.118H0Z" transform="translate(11.972)" fill="#f9f9f9"/><path d="M0,0H.861V2.118H0Z" transform="translate(13.914)" fill="#f9f9f9"/><path d="M0,0H.861V2.118H0Z" transform="translate(15.855)" fill="#f9f9f9"/><path d="M0,0H.861V2.118H0Z" transform="translate(17.797)" fill="#f9f9f9"/><path d="M0,0H.861V2.118H0Z" transform="translate(19.738)" fill="#f9f9f9"/><path d="M0,0H.861V2.118H0Z" transform="translate(21.721)" fill="#f9f9f9"/><path d="M0,0H.861V2.118H0Z" transform="translate(4.166 24.629)" fill="#f9f9f9"/><path d="M0,0H.861V2.118H0Z" transform="translate(6.148 24.629)" fill="#f9f9f9"/><path d="M0,0H.861V2.118H0Z" transform="translate(8.09 24.629)" fill="#f9f9f9"/><path d="M0,0H.861V2.118H0Z" transform="translate(10.031 24.629)" fill="#f9f9f9"/><path d="M0,0H.861V2.118H0Z" transform="translate(11.972 24.629)" fill="#f9f9f9"/><path d="M0,0H.861V2.118H0Z" transform="translate(13.914 24.629)" fill="#f9f9f9"/><path d="M0,0H.861V2.118H0Z" transform="translate(15.855 24.629)" fill="#f9f9f9"/><path d="M0,0H.861V2.118H0Z" transform="translate(17.797 24.629)" fill="#f9f9f9"/><path d="M0,0H.861V2.118H0Z" transform="translate(19.738 24.629)" fill="#f9f9f9"/><path d="M0,0H.861V2.118H0Z" transform="translate(21.721 24.629)" fill="#f9f9f9"/><path d="M0,0H2.118V.861H0Z" transform="translate(24.629 4.166)" fill="#f9f9f9"/><path d="M0,0H2.118V.861H0Z" transform="translate(24.629 6.149)" fill="#f9f9f9"/><path d="M0,0H2.118V.861H0Z" transform="translate(24.629 8.09)" fill="#f9f9f9"/><path d="M0,0H2.118V.861H0Z" transform="translate(24.629 10.032)" fill="#f9f9f9"/><path d="M0,0H2.118V.861H0Z" transform="translate(24.629 11.972)" fill="#f9f9f9"/><path d="M0,0H2.118V.861H0Z" transform="translate(24.629 13.914)" fill="#f9f9f9"/><path d="M0,0H2.118V.861H0Z" transform="translate(24.629 15.855)" fill="#f9f9f9"/><path d="M0,0H2.118V.861H0Z" transform="translate(24.629 17.797)" fill="#f9f9f9"/><path d="M0,0H2.118V.861H0Z" transform="translate(24.629 19.738)" fill="#f9f9f9"/><path d="M0,0H2.118V.861H0Z" transform="translate(24.629 21.721)" fill="#f9f9f9"/><path d="M0,0H2.118V.861H0Z" transform="translate(0 4.166)" fill="#f9f9f9"/><path d="M0,0H2.118V.861H0Z" transform="translate(0 6.149)" fill="#f9f9f9"/><path d="M0,0H2.118V.861H0Z" transform="translate(0 8.09)" fill="#f9f9f9"/><path d="M0,0H2.118V.861H0Z" transform="translate(0 10.032)" fill="#f9f9f9"/><path d="M0,0H2.118V.861H0Z" transform="translate(0 11.972)" fill="#f9f9f9"/><path d="M0,0H2.118V.861H0Z" transform="translate(0 13.914)" fill="#f9f9f9"/><path d="M0,0H2.118V.861H0Z" transform="translate(0 15.855)" fill="#f9f9f9"/><path d="M0,0H2.118V.861H0Z" transform="translate(0 17.797)" fill="#f9f9f9"/><path d="M0,0H2.118V.861H0Z" transform="translate(0 19.738)" fill="#f9f9f9"/><path d="M0,0H2.118V.861H0Z" transform="translate(0 21.721)" fill="#f9f9f9"/><path d="M21.967,21.328V13.8a.718.718,0,1,0-1.436,0v7.53a1.512,1.512,0,1,0,1.436,0M21.249,23.3a.631.631,0,1,1,.631-.631.632.632,0,0,1-.631.631" transform="translate(-7.991 -5.251)" fill="#f9f9f9"/><path d="M0,0H2.532V.861H0Z" transform="translate(15.145 9.05)" fill="#f9f9f9"/><path d="M0,0H1.5V.861H0Z" transform="translate(15.139 10.392)" fill="#f9f9f9"/><path d="M0,0H2.532V.861H0Z" transform="translate(15.145 11.734)" fill="#f9f9f9"/><path d="M0,0H1.5V.862H0Z" transform="translate(15.139 13.075)" fill="#f9f9f9"/><path d="M0,0H2.532V.861H0Z" transform="translate(15.145 14.418)" fill="#f9f9f9"/></g></g></g></svg>