<svg xmlns="http://www.w3.org/2000/svg" width="56" height="56" viewBox="0 0 56 56"><g transform="translate(-359 -1238)"><path d="M4.455,0H51.545A4.535,4.535,0,0,1,56,4.612V51.388A4.535,4.535,0,0,1,51.545,56H4.455A4.535,4.535,0,0,1,0,51.388V4.612A4.535,4.535,0,0,1,4.455,0Z" transform="translate(359 1238)" fill="#f85b11"/><g transform="translate(373.938 1251.506)"><path d="M31.256,11.2l2.687-2.646q-.277-.269-.567-.52l-2.383,2.925c.089.079.178.16.264.242" transform="translate(-11.786 -3.055)" fill="#f9f9f9"/><path d="M32.429,12.575l2.966-2.329q-.27-.329-.562-.641l-2.687,2.647q.145.159.283.323" transform="translate(-12.334 -3.649)" fill="#f9f9f9"/><path d="M29.976,10.005,32.36,7.08q-.288-.223-.586-.43l-2.05,3.169q.128.09.253.186" transform="translate(-11.295 -2.388)" fill="#f9f9f9"/><path d="M39.8,21.908l-3.738.437c.026.291.04.585.04.883q0,.21-.009.416l3.754.251q.016-.332.016-.667,0-.664-.063-1.32" transform="translate(-13.74 -8.307)" fill="#f9f9f9"/><path d="M34.464,15.984,37.9,14.451q-.245-.521-.531-1.018l-3.219,1.962c.109.193.213.389.309.59" transform="translate(-13.056 -5.099)" fill="#f9f9f9"/><path d="M33.5,14.151l3.219-1.962q-.262-.411-.556-.8L33.2,13.715c.1.143.205.288.3.436" transform="translate(-12.713 -4.324)" fill="#f9f9f9"/><path d="M13.064,24.341A9.432,9.432,0,0,1,9.272,6.286V8.42l7.271-4.211L9.272,0V2.387A13.1,13.1,0,0,0,7.982,26.971a13.068,13.068,0,0,0,17.6-8.326l-3.517-.988a9.423,9.423,0,0,1-9,6.685" transform="translate(-0.01)" fill="#f9f9f9"/><path d="M35.276,18.137l3.621-1.03a13.168,13.168,0,0,0-.467-1.291L34.99,17.35c.106.257.2.52.286.788" transform="translate(-13.355 -6.001)" fill="#f9f9f9"/><path d="M35.861,20.676l3.738-.437a13.274,13.274,0,0,0-.32-1.624l-3.622,1.031a9.574,9.574,0,0,1,.2,1.031" transform="translate(-13.595 -7.059)" fill="#f9f9f9"/><path d="M35.653,26.869l3.625,1.018a13.44,13.44,0,0,0,.393-2.307l-3.754-.251a9.739,9.739,0,0,1-.263,1.539" transform="translate(-13.594 -9.615)" fill="#f9f9f9"/></g></g></svg>